<?xml version="1.0" standalone="no"?>
<!DOCTYPE svg PUBLIC "-//W3C//DTD SVG 20010904//EN"
 "http://www.w3.org/TR/2001/REC-SVG-20010904/DTD/svg10.dtd">
<svg version="1.0" xmlns="http://www.w3.org/2000/svg"
 width="16.000000pt" height="16.000000pt" viewBox="0 0 16.000000 16.000000"
 preserveAspectRatio="xMidYMid meet">

<g transform="translate(0.000000,16.000000) scale(0.100000,-0.100000)"
fill="#000000" stroke="none">
<path d="M38 123 c-8 -10 -18 -35 -21 -55 -5 -36 -4 -38 22 -38 15 0 38 9 51
20 23 20 17 27 -10 10 -17 -11 -40 5 -40 28 0 8 7 24 17 34 9 10 12 18 6 18
-5 0 -17 -8 -25 -17z"/>
<path d="M115 123 c-32 -5 -55 -20 -55 -35 0 -6 7 -5 15 2 21 17 45 5 45 -23
0 -27 -14 -42 -45 -50 -16 -4 -15 -5 6 -6 34 -1 55 24 62 77 3 23 4 41 4 41
-1 -1 -15 -4 -32 -6z"/>
</g>
</svg>
